<?xml version="1.0" encoding="UTF-8"?><svg id="Layer_1" xmlns="http://www.w3.org/2000/svg" viewBox="0 0 108.19 71.41"><defs><style>.cls-1{fill:#812630;stroke-width:0px;}</style></defs><path class="cls-1" d="M25.36,24c0,.35-5.82,1.68-5.82,1.85,0,.09.35.09.75.09h.93c.13,0,.22,0,.22.04,0,.4-3.93.93-4.81,1.54-.44.31-.97,1.1-2.29,1.1-.31,0-.57-.04-.79-.04-.13,0-.22,0-.31.04-.26.13-2.87.97-2.87,1.15,0,.09.09.13.09.22,0,.04-.13.18-.71.26-1.59.26-4.06,1.81-4.59,2.16-.57.35-.26,1.32-.84,1.32-.44,0-1.1,1.01-1.32,1.01,0,0-.49-.31-.71-.31-.13,0-.22.04-.22.04l.4.71h.13c.62,0,1.72-.71,1.68-.71,0-.04.13-.13.22-.13.44,0,.66,1.46,2.12,1.46.22,0,.18-.13.71-.13.26,0,.22.18.48.4.27.31,1.24.48,1.46.71.22.22.66.44,1.01.44.26,0,.13-.22.79-.44.09,0,.13.04.13.18,0,.26-.18.57-.18.84,0,.31.18.79.18.79,0,0,.26-.18.57-.18s.88.57,1.46.57c.18,0,.18-.09.35-.09.44,0,.57.18.57.26,0,.13-.04.26-.04.48,0,.31.13.49.84.49.13,0,.18-.04.31-.04.09,0,.18.04.35.13l1.46.84c.71.31,2.12.79,2.12,1.72-.09,0-.66-.53-.66-.53l.26.66s.04.04.04.13l.31-.13c.26-.09.44-.09.62-.09.88,0,.84,1.15.84,1.1,0,.26,0,.66-1.63.88-2.47,2.43-5.07,4.01-6.93,4.9-.93.44-2.03.31-2.73,1.01-.13.22-1.32.22-1.94.57-.13.09-.26.13-.31.13-.18,0-.22-.18-.22-.35,0-.13.04-.26.04-.4,0-.09-.13-.13-.31-.13s-.35.04-.35.13c0,.04.09.13.09.18,0,.62-1.24.62-3.26.79-.88,0-3.04-.84-3.04-2.38,0-1.46,3.93-2.38,4.01-2.38-1.37.62-1.85.97-1.85,1.15,0,.13.27.18.66.18.66,0,1.68-.13,2.16-.13.22,0,.35.04.49.04.26,0,.35-.13.35-.26,0-.04-.04-.13-.04-.13,0,0,.71-.09,1.28-.09.18,0,.4.04.53.04.57,0,.84-.31.88-.62.04-.18,3.22-.79,3.66-1.5l.31-.31c-2.74.35-5.91.88-5.91.88.88-.26,4.59-1.01,6.44-1.37.48-.48.57-.48.57-.88,0-.22-.04-.4-.04-.4,0,0,.22-1.06.22-1.23,0-.09-.09-.13-.22-.13-.31,0-.62.22-.79.22-.26,0-2.43-.53-2.43-.84,0-.13.97,0,.97-.18,0-.35-1.72-.57-1.98-.57-1.63,0-.84-1.24-1.94-1.24-.22,0-.49.04-.66.04-.48,0-5.51-.84-5.51-3.48,0-.84.35-1.72.71-2.43.44-.97.93-.97.93-1.01-.4-.09-.66-.13-.66-.18,0-.62,4.68-3.18,4.98-3.18.13,0,.26.04.4.04.18,0,.22-.22.22-.4v-.18c.26-.31.93-1.01,2.07-1.01.44,0,.22.53.53.53-.09,0,.93-.09.93-.4,0-.18-.57-.35-.57-.49,0-.26,8.25-1.68,8.25-2.29,0-.09-.04-.22-.04-.31s3.66-.79,5.87-.88h.22c.26,0,.4.04.4.09Z"/><path class="cls-1" d="M43.98,48.57c-.93,0-6.66.71-9,.71s-2.65,1.19-2.65,1.19c0,0-1.63-.22-2.34-.44-.75-.26-1.19.22-1.19.22l-1.46.49-3.53.22s-3.84,1.19-4.28.49c-.49-.71,0-3.79,0-3.79l.93-1.19.22-1.54-.71-1.76.97-1.19s-.22-2.16-.22-4.28.93-6.44.93-6.44c0,0,.13-2.6,1.19-2.6.97,0-.22,4.76-.22,4.76l.93-1.41s.49-3.09.97-4.28c.48-1.19,1.63-1.19,1.63-1.19l2.16-2.6s-.26,1.41-.26,2.12-.22,1.19-.44,2.38c-.26,1.19-.26,1.9-.26,1.9,0,0-.44,1.68-.44,3.31s-.26,1.9-.75,3.35c-.44,1.41-.22,1.9-.22,3.09s-.71.44-.71.44c0,0,0-.71-.97-1.19-.93-.44-.93.75-.93.75l1.19.71s.93,2.6.93,3.31,0,2.12-.71,2.87c-.71.71.49.71,1.41,1.19.97.44,1.19-.48,1.19-.48h1.46c1.06.4,2.12.22,2.34-.49.26-.71,2.65-.22,2.65-.22,0,0,2.82-.49,4.01-.75,1.19-.22,2.38-.22,2.38-.22l-2.38.97s1.19.22,1.9.71c.71.48,2.16-1.19,2.87-1.19s2.12.49,2.12.49c0,0,0,.71,1.9.93,1.9.26-1.63.71-2.6.71Z"/><path class="cls-1" d="M60.61,39.13c.13.26.22.57.31.79.35,1.32.97,1.15,1.1,2.73.13,1.63.75.35.75,2.38,0,.09-.04.13-.09.13-.13,0-1.19-.93-1.54-.93-.04,0-.09.04-.09.09.04.04.18,1.19.75,1.19,1.24,0,2.69,1.37,3.04,2.47.09.26.84.71,1.28,1.19.4.44.75,1.46,1.01,1.98.62,1.32,1.15,1.32,1.15,2.21,0,.26-.18.53-.71.57-1.01,0-1.99-.31-2.56-.75-1.06-3.57-1.19-3.62-1.59-3.84-.04,0-.09-.04-.13-.09l-.49-.75c-.09,0,.31-.4.31-1.01,0-.22-1.24-.44-1.24-.35,0,.35.66,1.19.66,1.94,0,.53,1.06,1.32,1.46,2.07.26.49.18,1.15.44,1.54-.49-.49-1.63-.97-2.34-1.06-.84-.09-2.38-2.96-2.47-3.75-.09-.84-.75-2.69-.93-4.06s-.35-1.81-.93-2.91c-.18-.4-.31-.79-.4-1.23-.04.04-.09.04-.13.04-1.32.22-.88.57-1.76.57-.22,0-.35-.04-.35-.04l-.93-.26s-.53.09-.53.35c0,.75-1.15.84-1.68.84-.18,0-.22-.04-.22-.09,0-.18.31-.44.31-.44,0,0-.62.09-.88.26-.31.18-.13.27-.4.93-.26.57-2.07.79-3.75,1.19.18.13-.31,1.94-.71,1.81,0,0-.4-.35-.66-.35-.18,0-.31.35-.31.71,0,.71.75.84.75,1.46,0,.44-.66,1.76-.66,2.65,0,.31.04.62.04.97,0,.71-.18,1.37-.75,1.37-.62,0-1.23.84-2.21.84-.31,0-.53-.13-.53-.49,0-2.51,2.82-3.49,2.82-5.69,0-.75-.49-.09-.49-1.5,0-.31.04-.79.09-1.24-3.04.75-3.79,1.01-4.46,1.01-.22,0-.4-.44-.4-.84,0-.62,1.19-2.43,1.72-2.43.22,0,.44.13.62.13.35,0,1.28-1.32,2.38-1.32.4,0,.79.09,1.15.09l.22-.4s.4-.53.4-.84c0-.13-.09-.18-.09-.31,0-.31.44-.79.44-.79l.53-.26s.22-.44.22-.84c0-.26-.22-.31-.22-.57,0-.62,1.72-4.5,2.82-5.34.93-.71.75-1.19,1.41-1.59.13-.09,1.41-.44,1.41-.62,0,.04-.31-.75-.88-.75-.79,0-1.01,0-1.01-.88,0-.18,0-.35.09-.49.84-1.37.13-1.15,1.94-1.85,1.01-.4,1.68-1.32,2.78-1.32.26,0,.75.31.75.62,0,.22-.13.57-.13,1.37,0,1.32.62,1.1.62,1.94,0,.57.57.84.57,1.5v.57c0,.79.44,1.1.71,1.76.18.44,0,.79.49,1.1.44.26.62.88.62.88,0,0-.35.66-.35.93,0,.4-1.54.35-1.54.49.04.93,1.68-.18,2.07,1.54.26,1.15.97.35,1.01,1.28h.31c.26,0,.35.04.62.04,2.38,0,3.31-.97,5.12-.97,1.28,0-.31-1.19,1.94-1.19.49,0,.49.49.97.49h.31c.53,0,1.01.26,1.01.26.13,0-2.43,1.19-3.31,1.19-1.32,0-.35,1.01-4.15,1.01h-1.06c-1.76,0-1.28.62-1.5.93ZM57.26,38.33v-.35c0-.84-.88-1.72-.88-3.26,0-.49.04-.97.04-1.41,0-.93-1.46-2.78-1.37-3.18.04.31-.44-1.01-.97-1.01.13,0-1.46.93-1.46,1.94,0,.75-.13.88-.4.88-.44,0-.88.04-.88-.31,0-.13.04-.26.09-.35l-1.23.79s.35,1.68.75,1.68c.13,0,.27-.09.31-.18-.13.44-1.41,3.62-1.63,4.06-.31.79-.71,2.07-.88,2.43l.26.13c.09.04.22.09.35.09.44,0,.84-1.15,1.32-1.15.26,0,.53.18.53.18l.71.18s.44,0,1.01-.49c.53-.44,2.21-.44,2.82-.44.44,0,1.01-.13,1.5-.22Z"/><path class="cls-1" d="M89.33,24c0,.35-5.82,1.68-5.82,1.85,0,.09.35.09.75.09h.93c.13,0,.22,0,.22.04,0,.4-3.93.93-4.81,1.54-.44.31-.97,1.1-2.29,1.1-.31,0-.57-.04-.79-.04-.13,0-.22,0-.31.04-.26.13-2.87.97-2.87,1.15,0,.09.09.13.09.22,0,.04-.13.18-.71.26-1.59.26-4.06,1.81-4.59,2.16-.57.35-.26,1.32-.84,1.32-.44,0-1.1,1.01-1.32,1.01,0,0-.49-.31-.71-.31-.13,0-.22.04-.22.04l.4.71h.13c.62,0,1.72-.71,1.68-.71,0-.04.13-.13.22-.13.44,0,.66,1.46,2.12,1.46.22,0,.18-.13.71-.13.26,0,.22.18.49.4.26.31,1.24.48,1.46.71.22.22.66.44,1.01.44.26,0,.13-.22.79-.44.09,0,.13.04.13.18,0,.26-.18.57-.18.84,0,.31.18.79.18.79,0,0,.26-.18.57-.18s.88.57,1.46.57c.18,0,.18-.09.35-.09.44,0,.57.18.57.26,0,.13-.04.26-.04.48,0,.31.13.49.84.49.13,0,.18-.04.31-.04.09,0,.18.04.35.13l1.46.84c.71.31,2.12.79,2.12,1.72-.09,0-.66-.53-.66-.53l.27.66s.04.04.04.13l.31-.13c.26-.09.44-.09.62-.09.88,0,.84,1.15.84,1.1,0,.26,0,.66-1.63.88-2.47,2.43-5.07,4.01-6.93,4.9-.93.44-2.03.31-2.73,1.01-.13.22-1.32.22-1.94.57-.13.09-.26.13-.31.13-.18,0-.22-.18-.22-.35,0-.13.04-.26.04-.4,0-.09-.13-.13-.31-.13s-.35.04-.35.13c0,.04.09.13.09.18,0,.62-1.24.62-3.26.79-.88,0-3.04-.84-3.04-2.38,0-1.46,3.93-2.38,4.01-2.38-1.37.62-1.85.97-1.85,1.15,0,.13.26.18.66.18.66,0,1.68-.13,2.16-.13.22,0,.35.04.49.04.26,0,.35-.13.35-.26,0-.04-.04-.13-.04-.13,0,0,.71-.09,1.28-.09.18,0,.4.04.53.04.57,0,.84-.31.88-.62.04-.18,3.22-.79,3.66-1.5l.31-.31c-2.74.35-5.91.88-5.91.88.88-.26,4.59-1.01,6.44-1.37.49-.48.57-.48.57-.88,0-.22-.04-.4-.04-.4,0,0,.22-1.06.22-1.23,0-.09-.09-.13-.22-.13-.31,0-.62.22-.79.22-.26,0-2.43-.53-2.43-.84,0-.13.97,0,.97-.18,0-.35-1.72-.57-1.99-.57-1.63,0-.84-1.24-1.94-1.24-.22,0-.49.04-.66.04-.49,0-5.51-.84-5.51-3.48,0-.84.35-1.72.71-2.43.44-.97.93-.97.93-1.01-.4-.09-.66-.13-.66-.18,0-.62,4.68-3.18,4.98-3.18.13,0,.26.04.4.04.18,0,.22-.22.22-.4v-.18c.26-.31.93-1.01,2.07-1.01.44,0,.22.53.53.53-.09,0,.93-.09.93-.4,0-.18-.57-.35-.57-.49,0-.26,8.25-1.68,8.25-2.29,0-.09-.04-.22-.04-.31s3.66-.79,5.87-.88h.22c.26,0,.4.04.4.09Z"/><path class="cls-1" d="M57.56,27.75c-.03-.08.06-.29.16-.33M54.22,27.36c-.16-1.89.39-2.11.36-2.18-.51.02-.84.06-.87-.02-.42-1.08,3.17-7.62,3.52-7.76.15-.06.33-.04.48-.1.2-.08.1-.48-.02-.79l-.12-.31c.09-.66.37-2.18,1.67-2.69.5-.2.61.83.96.69-.1.04.99-.57.78-1.1-.12-.31-.89-.36-.98-.59-.18-.46,8.26-6.59,7.84-7.66-.06-.15-.2-.37-.26-.52s3.63-3.01,6.08-4.14l.25-.1c.3-.12.48-.1.51-.02.24.62-5.49,5.51-5.37,5.82.06.15.46,0,.91-.18l1.06-.41c.15-.06.25-.1.28-.02.27.69-3.84,3.36-4.43,4.83-.29.73-.36,2.36-1.86,2.94-.35.14-.68.18-.93.27-.15.06-.25.1-.32.21-.21.35-2.61,2.97-2.49,3.27.06.15.19.19.25.35.03.08-.03.37-.62.78-1.63,1.17-3.39,4.96-3.76,5.81-.41.87.6,2.43-.05,2.68-.5.2-.57,2.26-.82,2.36,0,0-.76-.32-1.01-.23-.15.06-.22.17-.22.17"/><path class="cls-1" d="M43.49,41.45c.04.07-.02.3-.11.35M46.84,41.33c.44,1.84-.07,2.14-.03,2.21.5-.1.82-.19.87-.12.58,1-1.98,8.01-2.31,8.2-.14.08-.32.09-.46.17-.19.11-.03.49.14.78l.16.29c0,.66-.03,2.21-1.25,2.91-.47.27-.73-.72-1.06-.54.09-.05-.9.71-.61,1.21.17.29.94.22,1.06.44.25.43-7.17,7.76-6.59,8.76.08.14.25.33.34.47s-3.13,3.53-5.39,5.02l-.23.13c-.28.16-.46.17-.5.1-.33-.57,4.6-6.28,4.43-6.56-.08-.14-.46.07-.88.31l-.98.57c-.14.08-.23.13-.27.06-.37-.64,3.29-3.9,3.65-5.44.18-.77,0-2.38,1.4-3.19.33-.19.65-.28.88-.41.14-.08.23-.13.29-.26.16-.38,2.13-3.33,1.96-3.61-.08-.14-.22-.16-.3-.3-.04-.07-.03-.37.5-.86,1.43-1.4,2.61-5.41,2.84-6.31.28-.92-.96-2.31-.35-2.66.47-.27.22-2.32.45-2.45,0,0,.8.2,1.04.07.14-.08.19-.21.19-.21"/><path class="cls-1" d="M107.54,35.33c-.79.49.79,1.1-1.28,1.46-1.81.26-1.9.31-3.04.31-.31,1.28-.44,1.46-.44,2.38,0,.18,0,.4-.04.57.09,1.1.13,2.65.04,4.15-.04.57-.31,1.81-.62,1.76-.66.44-.66,1.41-.79,2.51-.18,1.1,0,1.41-.48,3.48-.49,2.07-1.28.79-1.28.79,0,0,.79-1.41.18-1.9-.66-.49-.31-1.1-.31-1.76,0-.62.31-1.24.31-3.31v-.31l.31-2.21.57-1.81c-.18-.13-.35-.18-.57-.26-.48-.18-.18-.79,0-1.41.18-.66.49-1.9.49-1.9l1.1-.66s-.13-.09-.26-.22c-1.1-.13-1.94-.35-2.74-.22-1.1.13-2.25,1.24-2.25,1.24l-.44-.49s0-1.41-.79-.62c-.79.79.79.97,0,1.28l-.79.31-1.1-.79s-1.1-.62-1.1-.18c0,.49,1.1.97,1.1.97,0,0,.93.48-.79.48h-1.76l-1.9.49s.97-.49-.79,0c-.13,1.24-.13,2.51-.31,3.44-.13.97.49,1.46.62,3.66.04.35.09.62.18.79-.35.18-.66.4-.79.62-.31.66.79.66.79.66,0,0,1.1-.97,2.07-2.07.93-1.1.13.49-.35,1.59-.44,1.1-2.51,2.51-3.79,3.79-1.23,1.28-1.9.79-2.51,1.59-.62.79-.49-.31-.49-.31,0,0,.18-2.25.31-3.79.18-1.59.66-1.59.97-2.07.62-1.01-.13-1.72-.97-1.28-.93.18-.13-2.21.35-2.69.44-.49-.18-1.41-.18-1.41v-1.37c-2.25.62-4.76,1.28-6.18,1.37-2.51.13-2.21-.49-.93-.79,1.24-.31-.35-1.41-.35-1.41,0,0,0-.66.66-.97.62-.31,1.72.97,2.21.66.49-.35,0-.66,0-.66l.49-.93,4.76-.97c.04-1.06.09-2.6-.04-3.18-.13-.93.49-2.82.49-3.48,0-.62.49-2.21.49-4.23l1.9-.49s.93-.18,1.41-.66c.49-.44.49-.93.49-.93,0,0,.62-.18,1.41-.62.79-.48-.13,1.1-.13,1.54,0,.49-.18,1.46-.66,2.25-.44.79-.13.93-.31,2.03-.13,1.1-1.72,2.25-1.72,2.25l1.1.13s0,.79-.18,1.28c-.13.49-.93.93-.93.93,0,0,.44.79.31,2.07-.04.26-.09.44-.18.53,1.94-.31,3.79-.53,4.9-.53,1.76,0,4.76-.35,7.28-.66.04-.75.4-1.63.49-2.21.22-.79-.26-1.46-.26-2.16,0-.04-.04-.13-.04-.18-.13-.66.49-1.46.62-1.9.18-.49.18-2.25-.44-2.69,0,0,.13-.49.31-1.15.13-.62.48.35,1.1.18.62-.18,1.28-1.28,1.72-2.21.48-.97.66.13.66.93s-.31,2.56-.49,3.18c-.18.62-.18,1.9-.62,3.18-.49,1.28,0,2.38.13,4.41,0,.09,0,.13.04.18,2.51-.31,3.13-.79,4.1-.62.93.13.79.75,0,1.24ZM87.47,36.44c-.13-.04-.22-.13-.22-.13,0,0,.04.04.09.18.04,0,.09-.04.13-.04ZM88.53,47.38c.53-.31,1.1-.49,1.1-.49,0,0-.75,1.32-1.1.49Z"/></svg>